<svg xmlns="http://www.w3.org/2000/svg" width="24" height="24"><path d="M23.916 14.531l-.004-.005-.002-.005a1.231 1.231 0 00-.198-.326l-.912-1.063V6.68a4.398 4.398 0 00-2.421-3.928l.021-1.683a.804.804 0 00-.678-.8l-.895-.14a.805.805 0 00-.889.557l-.486 1.593H9.2A4.405 4.405 0 004.8 6.68v4.8H3.168c-.351 0-.684.154-.912.42L.289 14.196a1.191 1.191 0 00-.289.781v8.504c0 .221.179.399.4.399h23.2a.4.4 0 00.4-.399v-8.504c0-.153-.029-.304-.084-.446zm-4.334-2.252h1.25a.415.415 0 01.305.141l1.594 1.86h-3.252a5.35 5.35 0 00.103-2.001zm.752-8.562c.006-.02.006-.042.01-.063A3.596 3.596 0 0122 6.679v5.519l-.257-.3a1.186 1.186 0 00-.544-.351V6.68a2.764 2.764 0 00-1.094-2.215l.229-.748zm-.484 1.587c.355.37.553.863.551 1.376v4.8h-.9a3.895 3.895 0 01.213-2.088.77.77 0 00-.018-.699.819.819 0 00-.465-.388l.307-1.977.312-1.024zm-1.867-1.02l.001-.004-.001-.004.013-1.038.709-2.318.895.14-.03 2.423v.001l-.708 2.318-.339-.052-.558-.087.018-1.379zm-.089 2.177l.623.097.171.027-.245 1.581-.794-.123.245-1.582zm.821 2.558l.276.028c-.458.958-.347 1.977-.249 2.874l.006.058c.086.821.164 1.602-.113 2.3h-2.021l-.576-2.33.168-.39c.389-.886.793-1.803.66-2.829l1.849.289zm-8.692-1.383l.951 3.844H7.2v-4.8a2.002 2.002 0 012-2h7.978l-.016 1.28-.307 1.976a.814.814 0 00-.564.229.771.771 0 00-.227.661 3.592 3.592 0 01-.346 1.839L14.683 6.48a.808.808 0 00-.375-.496.774.774 0 00-.593-.084l-3.105.767a.802.802 0 00-.587.969zM5.6 6.68a3.604 3.604 0 013.6-3.6h8.02a.69.69 0 00-.023.149l-.008.651H9.2a2.804 2.804 0 00-2.8 2.8v7.2h-.8v-7.2zm2 8v1.601a1.203 1.203 0 01-1.2 1.2h-.8a1.202 1.202 0 01-1.2-1.2V14.68h3.2zm3.6 8.4H.8v-8.104c0-.096.034-.188.096-.26l1.967-2.295a.41.41 0 01.305-.143H4.8v1.601h-.4a.802.802 0 00-.8.8v1.601a2 2 0 002 1.999h.8a2.001 2.001 0 002-1.999v-1.6a.801.801 0 00-.8-.8h-.4v-1.601h1.632a.41.41 0 01.304.141l1.963 2.292a.408.408 0 01.101.265v8.103zm-1.13-10.801h1.102l.447 1.809-1.549-1.809zm2.852-1.24a.4.4 0 00-.48-.293l-.777.193-.192-.777.777-.192a.4.4 0 10-.192-.777l-.778.191-.48-1.94 3.108-.768 1.881 7.604h-2.088a.383.383 0 00-.188-.382.403.403 0 00-.303-.046l-.779.193-.192-.777.778-.191a.405.405 0 00.29-.278.399.399 0 00-.483-.5l-.778.193-.192-.777.778-.192a.402.402 0 00.29-.484zM23.2 23.08H12v-8h11.2v8z"/><path d="M13.029 8.127a.4.4 0 10-.777.193.4.4 0 00.777-.193zM13.2 16.68h.8a.4.4 0 100-.799h-.8a.4.4 0 100 .799zM15.6 16.68H22a.4.4 0 100-.799h-6.4a.4.4 0 100 .799z"/></svg>